PathFileType	4	(X/Y/Z)	C:/Users/beibeiliu/ov580/test_trc/capture2\sequence.20_training_dense_left.trc
DataRate	CameraRate	NumFrames	NumMarkers	Units	OrigDataRate	OrigDataStartFrame	OrigNumFrames
120	120	18	19	mm	120	43	337
Frame#	Time	ThumbCMC			ThumbMCP			ThumbIP			ThumbTip			IndexMCP			IndexPIP			IndexTip			MiddleMCP			MiddlePIP			MiddleTip			RingMCP			RingPIP			RingTip			PinkyMCP			PinkyPIP			PinkyTip			BackHand1			BackHand2			BackHand3	
		X0	Y0	Z0	X1	Y1	Z1	X2	Y2	Z2	X3	Y3	Z3	X4	Y4	Z4	X5	Y5	Z5	X6	Y6	Z6	X7	Y7	Z7	X8	Y8	Z8	X9	Y9	Z9	X10	Y10	Z10	X11	Y11	Z11	X12	Y12	Z12	X13	Y13	Z13	X14	Y14	Z14	X15	Y15	Z15	X16	Y16	Z16	X17	Y17	Z17	X18	Y18	Z18	
42	0.35	-132.774	86.7218	7.41566	-112.437	90.879	-15.6065	-112.647	76.078	-43.8335	-119.286	54.8994	-52.7512	-144.692	86.4316	-63.5236	-141.904	81.393	-90.2545	-144.135	75.0062	-115.349	-152.62	64.7679	-75.5956	-150.504	61.1876	-98.848	-148.695	61.2815	-128.456	-155.1	46.0244	-68.6629	-152.266	43.2838	-94.8195	-149.082	46.3178	-119.222	-155.589	28.8091	-59.0581	-150.287	31.2617	-80.3605	-152.024	34.0243	-103.279	-171.871	48.5368	-19.3902	-177.981	48.548	7.98464	-165.562	77.7621	-3.79444	
43	0.358333	-128.851	85.2924	10.9207	-111.885	84.1779	-14.1247	-108.828	76.6539	-40.429	-121.654	51.5818	-55.2597	-143.797	83.5288	-63.4045	-140.194	86.4505	-85.3932	-143.463	79.5449	-109.074	-153.483	66.9723	-70.3043	-150.445	68.9768	-99.2092	-150.255	64.5557	-124.254	-156.54	51.8084	-71.1687	-154.931	49.8493	-91.3491	-153.533	48.5366	-119.479	-157.729	36.2898	-60.2329	-154.088	34.7854	-79.7413	-156.027	38.1679	-100.492	-171.937	53.5215	-21.5842	-180.619	48.9051	8.21107	-162.467	81.0222	-1.15792	
44	0.366667	-127.91	78.8604	14.003	-105.726	81.3228	-13.3083	-107.066	73.7718	-45.377	-123.493	52.4928	-52.6387	-138.832	88.0046	-59.5503	-138.027	87.0459	-82.9149	-141.302	81.531	-110.105	-151.203	73.6647	-67.4636	-150.596	70.7175	-93.348	-150.14	71.0758	-123.33	-158.41	55.0183	-71.085	-156.76	54.509	-90.2865	-155.321	53.9395	-118.896	-160.883	38.1184	-56.2043	-156.394	38.6119	-82.0455	-156.483	46.0619	-104.01	-172.265	55.8974	-18.4156	-177.77	56.6568	9.02363	-159.249	84.4706	-2.55823	
45	0.375	-122.819	77.5414	13.5847	-104.1	76.0614	-13.7716	-105.313	68.7333	-38.5704	-119.343	53.8647	-53.4572	-134.608	90.0069	-58.6739	-132.241	89.7747	-84.1241	-136.258	86.2854	-108.26	-148.7	77.0991	-69.7455	-149.064	73.4728	-96.8396	-148.771	75.4368	-121.031	-156.525	62.8871	-66.9041	-155.705	60.4873	-88.8737	-155.347	61.6131	-119.752	-162.864	43.5321	-60.7323	-159.527	42.0003	-80.214	-160.236	49.3975	-100.04	-174.396	57.6116	-17.6984	-179.023	61.1215	11.8175	-155.964	84.0812	1.43737	
46	0.383333	-119.311	77.0798	13.3693	-99.2614	72.9374	-10.9807	-102.751	67.0562	-38.191	-123.495	50.8058	-51.7065	-129.658	90.8665	-55.8254	-129.128	90.0639	-79.0642	-134.297	86.5145	-105.306	-144.293	81.6536	-68.0496	-143.537	80.5897	-95.5983	-144.93	79.7281	-119.474	-159.748	63.1284	-65.8049	-154.857	66.9399	-88.7992	-156.551	66.2495	-115.231	-164.349	48.5621	-60.9071	-159.831	48.9565	-75.6475	-159.939	53.6594	-99.0313	-170.466	65.5852	-18.2294	-178.144	62.9166	12.0919	-150.865	85.8628	2.49023	
47	0.391667	-116.083	72.7113	16.2825	-101.772	66.4611	-9.21998	-99.7393	64.0016	-40.7951	-119.078	51.1814	-55.9527	-125.381	90.9998	-57.358	-121.967	91.2977	-77.0751	-126.584	92.8438	-103.502	-142.194	81.7579	-63.9989	-142.051	81.0878	-91.6329	-139.871	85.029	-118.543	-156.414	68.2495	-68.4002	-152.737	70.4676	-87.8334	-154.419	73.4434	-114.956	-164.035	52.4993	-56.621	-160.728	52.9921	-78.7633	-160.13	61.0227	-101.443	-169.801	66.4505	-14.7073	-175.586	69.6101	9.97481	-148.117	87.6467	3.70897	
48	0.4	-116.433	68.9249	19.4668	-99.8641	62.1641	-7.07617	-97.7474	60.1545	-38.9776	-122.312	49.4265	-51.948	-121.199	90.7861	-54.1268	-120.19	91.0867	-77.7386	-123.417	93.6592	-101.604	-139.904	82.5999	-63.7945	-134.409	85.9136	-91.1452	-133.275	89.6687	-118.976	-151.761	71.9961	-63.0123	-153.899	73.5682	-89.8226	-147.311	80.5902	-115.587	-165.953	57.2292	-60.2484	-160.059	60.0348	-80.5201	-160.835	66.9928	-97.7869	-170.468	71.1812	-14.8308	-174.87	71.5162	9.13173	-148.448	86.2063	4.80061	
49	0.408333	-111.205	67.6033	17.1514	-99.0117	59.1415	-6.17436	-98.9588	56.4723	-35.687	-120.922	49.5767	-53.9416	-116.922	90.0933	-55.1356	-113.246	91.6652	-78.9291	-115.671	95.1901	-100.31	-134.857	86.3984	-64.0884	-132.57	86.7312	-89.1505	-133.997	91.5393	-118.803	-151.633	76.4119	-64.6146	-147.941	79.14	-88.7153	-148.103	84.3195	-112.213	-163.795	62.1796	-52.4138	-158.277	65.1568	-75.5158	-162.327	75.4492	-98.764	-166.417	78.1333	-16.6261	-170.238	76.3566	12.4609	-141.765	88.1646	5.04775	
50	0.416667	-112.214	62.6522	22.2919	-96.658	55.7532	-6.30879	-98.1933	52.8658	-33.6774	-117.697	49.22	-55.0418	-109.851	87.3979	-49.0444	-111.402	89.9757	-76.9401	-109.67	94.932	-97.0983	-130.77	86.487	-62.34	-128.28	88.8533	-88.1049	-128.637	93.3419	-113.161	-147.347	79.7523	-61.2187	-146.558	82.4897	-88.3999	-142.482	89.4918	-113.035	-162.787	68.1357	-57.0002	-161.311	70.1396	-75.3887	-157.443	81.2327	-93.5157	-163.331	81.6278	-13.2743	-170.617	81.8713	11.8367	-137.912	89.1122	5.91285	
51	0.425	-111.029	59.4039	23.2707	-93.1851	50.4607	-4.12048	-98.7773	49.5374	-32.461	-121.343	48.8897	-53.9873	-107.838	86.0988	-50.2301	-104.898	88.0135	-74.8355	-106.769	94.008	-99.5677	-125.824	87.0167	-60.7041	-121.052	89.2413	-83.0628	-122.994	96.4758	-115.672	-141.28	82.443	-61.121	-138.782	85.4264	-85.6773	-139.903	90.7171	-108.388	-163.967	72.7811	-54.3346	-155.805	76.2515	-76.958	-150.377	85.118	-94.8852	-157.591	84.9514	-13.504	-168.535	84.2881	13.5359	-131.065	89.9537	7.30387	
52	0.433333	-113.115	58.9276	20.4316	-96.7495	48.0143	-1.39798	-98.0402	49.1978	-37.4794	-121.198	49.005	-51.685	-106.991	83.4712	-48.3732	-103.468	85.4653	-72.8657	-104.193	90.8078	-98.5185	-123.584	88.1077	-63.7637	-117.618	89.1266	-82.8807	-113.642	94.8041	-111.528	-143.491	83.2765	-59.9461	-136.008	86.3784	-83.8126	-134.484	93.3322	-108.83	-160.699	76.7707	-54.6873	-152.891	79.4975	-76.7895	-149.964	92.1205	-97.3193	-153.646	86.6484	-13.6364	-165.832	89.4589	16.8373	-126.477	89.0838	6.43702	
53	0.441667	-110.192	54.8794	23.8726	-95.1021	46.0929	-5.40638	-96.6158	45.4218	-35.9415	-118.8	47.7943	-49.3787	-102.572	81.0446	-46.6707	-98.0566	82.7794	-72.9207	-97.2392	87.3178	-94.2191	-115.223	86.519	-61.5328	-113.517	88.8813	-85.6468	-111.751	93.9619	-111.224	-133.823	84.767	-59.7322	-133.989	86.7291	-82.0235	-128.094	92.7892	-104.094	-154.613	80.0862	-51.6442	-148.013	81.8698	-73.6428	-144.677	92.8564	-92.6691	-153.17	91.4224	-9.16418	-158.613	91.8852	16.6455	-120.921	87.7034	7.83517	
54	0.45	-107.558	54.1336	20.9721	-96.3999	42.5442	-1.78425	-96.4119	42.6178	-33.1129	-117.175	46.8929	-48.4241	-99.2193	78.9147	-46.5069	-94.2348	81.4577	-74.4736	-94.0375	85.0807	-93.862	-116.559	86.5626	-59.1098	-109.587	86.8241	-85.1461	-105.835	92.8469	-110.8	-135.279	86.0707	-58.3801	-131.925	89.0292	-84.1324	-124.235	92.3743	-104.991	-151.202	83.2151	-53.516	-146.22	84.2271	-72.9647	-139.963	92.0427	-93.558	-147.359	93.3451	-9.9078	-156.499	92.1837	18.6796	-118.43	84.5434	10.4003	
55	0.458333	-110.1	51.9045	22.3265	-95.8872	39.7111	-3.37323	-99.0921	40.844	-30.2961	-115.519	46.0896	-52.4742	-97.6388	76.1937	-43.7499	-93.0977	77.1417	-71.2968	-91.6341	82.1611	-94.6822	-110.37	84.5868	-57.3368	-104.822	85.766	-83.0109	-105.3	90.4792	-106.745	-128.719	85.5831	-54.9464	-126.347	89.0775	-84.3806	-120.83	92.0924	-104.61	-149.748	85.5147	-51.9725	-143.035	84.3015	-69.7642	-138.414	94.2031	-96.1713	-140.913	91.9892	-7.68611	-147.721	93.7903	18.3731	-116.356	85.7622	13.9481	
56	0.466667	-106.858	50.8446	22.1327	-94.574	37.3377	-2.22061	-95.3269	37.8093	-31.7544	-112.53	43.8406	-51.058	-92.5915	73.9046	-45.4419	-88.2094	73.4897	-69.7654	-86.6828	77.9642	-92.0077	-107.459	83.3122	-58.9526	-104.841	83.6026	-84.3033	-102.837	88.904	-110.493	-127.102	84.689	-55.1893	-124.147	87.1308	-83.8278	-115.544	90.3699	-106.381	-146.547	84.1948	-47.9611	-141.31	84.1485	-68.5562	-136.224	93.853	-93.5829	-139.697	95.0399	-12.2146	-147.802	97.3145	20.4639	-111.958	82.0665	10.7408	
57	0.475	-109.614	50.3054	25.6668	-96.9233	37.248	1.31303	-99.9364	38.9694	-29.8064	-115.07	44.5222	-46.6343	-91.3494	71.6722	-47.5866	-89.9882	73.0375	-71.0295	-86.6647	76.8734	-94.6414	-107.534	82.9005	-58.42	-104.881	81.902	-79.5873	-100.156	86.3995	-111.142	-123.658	85.0223	-59.3877	-120.08	86.4112	-81.1936	-115.645	88.7016	-102.571	-145.928	85.6583	-49.6787	-140.989	87.0227	-72.9798	-134.91	95.4641	-91.3616	-139.6	93.3269	-9.17101	-141.657	95.9959	19.9976	-112.649	83.7651	12.9199	
58	0.483333	-106.238	47.6233	27.3438	-97.5067	35.6876	0.875602	-97.1143	35.4816	-26.6606	-115.131	44.3648	-47.8766	-91.9856	69.8166	-44.4302	-89.4039	70.2445	-68.7242	-86.4755	76.0772	-96.4595	-107.568	80.8778	-55.7221	-102.16	80.1168	-84.6752	-97.1291	84.2034	-110.787	-124.545	85.0706	-55.6898	-120.453	85.7617	-81.808	-114.308	87.4515	-102.411	-144.906	86.3231	-50.3391	-138.332	85.0646	-69.9319	-131.098	93.3272	-93.4336	-133.141	91.9545	-10.2034	-143.014	96.1202	20.563	-111.515	83.2982	11.3073	
59	0.491667	-106.222	46.1684	28.0939	-97.3445	34.2753	0.576187	-97.996	34.9122	-27.3862	-117.01	44.1947	-46.0499	-88.5701	67.7308	-48.4368	-84.0272	66.7624	-72.3357	-86.7382	72.5341	-92.0535	-106.046	80.5488	-58.9461	-100.899	78.6293	-80.3597	-99.76	82.5505	-109.013	-122.793	84.2212	-58.9887	-117.124	83.2843	-82.5849	-112.484	88.2057	-107.785	-144.891	84.3508	-48.6409	-137.681	84.9405	-74.8207	-131.231	89.3588	-92.128	-137.722	94.2781	-7.22858	-142.55	97.7786	19.3456	-107.459	80.8653	12.612	
